<svg viewBox="0 0 193.65 35.81" xmlns="http://www.w3.org/2000/svg" data-name="Layer 1" id="Layer_1">
  <defs>
    <style>
      .cls-1 {
        fill: #d37f65;
      }

      .cls-2 {
        fill: #1b1c28;
      }
    </style>
  </defs>
  <path d="M108.73,9.96h-24.86c-.84,0-1.53.69-1.53,1.53v2.38c0,.7.57,1.26,1.26,1.26h21.74c.7,0,1.26.57,1.26,1.26v2.47c0,.7-.57,1.26-1.26,1.26h-21.74c-.7,0-1.26.57-1.26,1.26h0c0,.65-.49,1.2-1.14,1.25-1.12.09-2.23.42-3.05,1.23l-1.16,1.43V7.02c0-.68,1.69-2.05,2.41-2.05h29.07c.84,0,1.53.69,1.53,1.53v2.2c0,.7-.57,1.26-1.26,1.26Z" class="cls-2"></path>
  <path d="M34.58,7.14l-9.63,9.29c-.52.5-.51,1.33,0,1.83l10.82,10.22c.83.78.28,2.18-.87,2.18h-4.62c-.32,0-.63-.12-.87-.35C20.81,22.09,11.87,14.2,3.29,5.95c-.27-.26-.72-.57-.71-.98h7.8c.32,0,.63.12.86.34l7.51,7.05c.49.46,1.24.46,1.73,0l7.51-7.05c.23-.22.54-.34.86-.34h4.85c1.14,0,1.7,1.38.88,2.17Z" class="cls-2"></path>
  <path d="M147.4,30.66h-3.69c-.39,0-.76-.18-1-.49l-11.54-14.95c-.74-.95-2.26-.43-2.26.77v13.41c0,.7-.57,1.26-1.26,1.26h-3c-.7,0-1.26-.57-1.26-1.26V6.23c0-.7.57-1.26,1.26-1.26h4.98c.39,0,.76.18,1,.49l17.78,23.17c.64.83.05,2.03-1,2.03Z" class="cls-2"></path>
  <path d="M188.1,7.23l-7.04,5.49c-.53.41-.64,1.17-.26,1.72l10.03,14.23c.59.84,0,1.99-1.03,1.99h-3.66c-.42,0-.82-.22-1.05-.57-2.72-4.16-5.83-8.08-8.55-12.23-.4-.61-1.21-.76-1.8-.34l-2.8,2.04c-.83.61-2.01.01-2.01-1.02v-3.11c0-.41.2-.79.54-1.03,4.17-2.89,8.18-6.11,12.24-9.18.22-.17.49-.26.77-.26h3.84c1.2,0,1.72,1.52.78,2.26Z" class="cls-2"></path>
  <path d="M73.06,6.23v2.47c0,.7-.57,1.26-1.26,1.26h-30.48c-.7,0-1.26-.57-1.26-1.26v-2.2c0-.84.69-1.53,1.53-1.53h30.22c.7,0,1.26.57,1.26,1.26Z" class="cls-2"></path>
  <path d="M80.61,30.84c-.1,0-.2,0-.3-.03-1.31-.31-2.35-1.78-2.44-3.08-.19-2.76,1.77-3.69,4.19-3.85,8.58-.56,17.77.43,26.42,0l.8.36c-.63-.36-1.93,1.07-2.05,1.07h-26.85v.54h26.41l-.06.27c-.13.58-.64.99-1.23.99l-25.89.02-.3.5h27.03c.23,0,.46,1.17.45,1.43h-26.41v.36h26.68c.06,0,.73.75,1,.79l1.23.64h-28.66Z" class="cls-2"></path>
  <rect ry="1.26" rx="1.26" height="25.69" width="5.35" y="4.97" x="112.85" class="cls-2"></rect>
  <rect ry="1.26" rx="1.26" height="25.69" width="5.35" y="4.97" x="159.42" class="cls-2"></rect>
  <path d="M58.05,30.66h-3c-.7,0-1.26-.57-1.26-1.26v-12.91c0-.84.69-1.53,1.53-1.53h2.47c.84,0,1.53.69,1.53,1.53v12.91c0,.7-.57,1.26-1.26,1.26Z" class="cls-2"></path>
  <path d="M3.6,28.49l8.62-8.26c.47-.45,1.2-.47,1.7-.05.73.63,1.74,1.53,2.44,2.22.51.5.5,1.33-.02,1.82l-6.52,6.1c-.23.22-.54.34-.86.34h-4.48c-1.14,0-1.7-1.39-.87-2.18Z" class="cls-2"></path>
  <path d="M146.89,5.19c5.33-.44,6.91,7.15,2.3,9.09-6.88,2.89-9.27-8.51-2.3-9.09Z" class="cls-1"></path>
</svg>